<svg width="137.000000" height="74.000000" viewBox="0 0 137 74" fill="none" xmlns="http://www.w3.org/2000/svg" xmlns:xlink="http://www.w3.org/1999/xlink">
	<desc>
			Created with Pixso.
	</desc>
	<defs>
		<clipPath id="clip2_5">
			<rect id="IMAGE" width="137.000000" height="74.000000" fill="white" fill-opacity="0"/>
		</clipPath>
	</defs>
	<g clip-path="url(#clip2_5)">
		<path id="Vector" d="M35.25 16.21L25.63 35.16L36.7 35.16L36.7 47.44L6.56 47.44L16.09 28.43L6.18 28.43L6.18 16.21L35.25 16.21Z" fill="#000000" fill-opacity="1.000000" fill-rule="nonzero"/>
		<path id="Vector" d="M71.7 33.72L46.31 33.72C46.06 32.92 45.92 32.09 45.91 31.25C45.91 30.2 46.09 29.16 46.46 28.18L60.03 28.18C59.61 25.86 58.31 24.71 56.11 24.7C55.41 24.69 54.71 24.86 54.09 25.19C53.47 25.51 52.93 25.99 52.54 26.57C51.61 27.81 51.16 29.4 51.16 31.34C51.16 33.37 51.6 35.01 52.49 36.26C52.86 36.85 53.38 37.32 53.99 37.65C54.61 37.98 55.29 38.15 55.98 38.14C57.16 38.14 58.29 37.56 59.37 36.39L66.06 44.39C63.12 46.77 59.46 48.07 55.68 48.07C51.03 48.07 47.13 46.51 43.98 43.4C40.83 40.29 39.25 36.44 39.25 31.85C39.21 29.69 39.61 27.54 40.43 25.55C41.26 23.55 42.48 21.75 44.04 20.25C47.22 17.1 51.14 15.52 55.78 15.52C60.32 15.52 64.14 17.06 67.22 20.14C70.3 23.22 71.84 27.01 71.84 31.52C71.83 32 71.79 32.72 71.7 33.72Z" fill="#000000" fill-opacity="1.000000" fill-rule="nonzero"/>
		<path id="Vector" d="M93.73 15.9L93.73 28.43C93.06 28.01 92.29 27.78 91.5 27.74C89.37 27.74 88.3 29.37 88.3 32.63L88.3 67.46L76.57 67.46L76.57 30.4C76.57 25.88 77.8 22.28 80.27 19.6C82.74 16.91 86.03 15.57 90.15 15.57C91.35 15.59 92.55 15.7 93.73 15.9Z" fill="#000000" fill-opacity="1.000000" fill-rule="nonzero"/>
		<path id="Vector" d="M130.99 20.18C131.02 22.33 130.61 24.46 129.79 26.45C128.96 28.43 127.73 30.22 126.18 31.71C123.08 34.77 118.9 36.48 114.55 36.48C110.2 36.48 106.02 34.77 102.92 31.71C101.37 30.23 100.13 28.44 99.3 26.46C98.47 24.48 98.06 22.35 98.09 20.2C98.05 18.05 98.45 15.91 99.28 13.92C100.12 11.93 101.36 10.14 102.92 8.66C106.14 5.54 110.12 3.98 114.84 3.98C116.97 3.95 119.08 4.36 121.04 5.18C123 6 124.77 7.22 126.24 8.75C127.77 10.24 128.98 12.01 129.79 13.98C130.61 15.95 131.01 18.06 130.99 20.18Z" fill="#000000" fill-opacity="1.000000" fill-rule="nonzero"/>
		<path id="Vector" d="M8.41 54.91L8.41 64.99L7.18 64.99L7.18 54.91L8.41 54.91ZM7.86 64.99L7.86 63.77L10.21 63.77C10.74 63.77 11.27 63.68 11.77 63.5C12.22 63.33 12.63 63.07 12.97 62.74C13.31 62.4 13.58 61.99 13.75 61.54C14.12 60.52 14.12 59.39 13.75 58.37C13.58 57.92 13.31 57.51 12.97 57.17C12.63 56.83 12.22 56.57 11.77 56.41C11.27 56.23 10.74 56.13 10.21 56.14L7.85 56.14L7.85 54.92L10.21 54.92C11.12 54.9 12.01 55.11 12.81 55.55C13.56 55.96 14.18 56.57 14.6 57.31C15.03 58.13 15.25 59.03 15.25 59.95C15.25 60.87 15.03 61.78 14.6 62.6C14.18 63.34 13.56 63.95 12.81 64.36C12.01 64.79 11.12 65.01 10.21 64.99L7.86 64.99Z" fill="#000000" fill-opacity="1.000000" fill-rule="nonzero"/>
		<path id="Vector" d="M21.27 54.91L21.27 64.99L20.02 64.99L20.02 54.91L21.27 54.91ZM20.72 54.91L25.81 54.91L25.81 56.06L20.72 56.06L20.72 54.91ZM20.72 58.94L25.52 58.94L25.52 60.1L20.72 60.1L20.72 58.94ZM20.72 63.84L25.81 63.84L25.81 64.99L20.72 64.99L20.72 63.84Z" fill="#000000" fill-opacity="1.000000" fill-rule="nonzero"/>
		<path id="Vector" d="M32.13 63.01C32.37 63.3 32.66 63.54 32.99 63.73C33.32 63.9 33.7 63.99 34.07 63.98C34.55 64.01 35.01 63.85 35.37 63.54C35.53 63.4 35.66 63.22 35.74 63.02C35.83 62.82 35.87 62.61 35.86 62.4C35.88 62.01 35.77 61.63 35.54 61.32C35.32 61.04 35.04 60.82 34.71 60.66C34.37 60.49 34.01 60.34 33.64 60.21C33.4 60.13 33.12 60.01 32.81 59.88C32.49 59.73 32.2 59.55 31.93 59.34C31.65 59.12 31.42 58.85 31.24 58.54C31.06 58.18 30.96 57.78 30.98 57.37C30.97 56.9 31.1 56.43 31.35 56.03C31.61 55.63 31.97 55.31 32.39 55.1C32.86 54.87 33.38 54.75 33.9 54.76C34.4 54.75 34.89 54.86 35.34 55.08C35.74 55.27 36.09 55.54 36.38 55.88C36.66 56.18 36.89 56.52 37.06 56.89L36.01 57.5C35.88 57.23 35.72 56.99 35.53 56.76C35.34 56.52 35.1 56.32 34.83 56.17C34.53 56.01 34.18 55.93 33.83 55.94C33.62 55.92 33.4 55.95 33.19 56.02C32.98 56.08 32.79 56.19 32.63 56.34C32.4 56.57 32.26 56.89 32.26 57.22C32.25 57.49 32.31 57.76 32.44 58C32.63 58.27 32.88 58.5 33.17 58.66C33.61 58.91 34.08 59.11 34.56 59.27C34.85 59.38 35.14 59.5 35.41 59.64C35.71 59.8 35.99 60 36.24 60.23C36.5 60.47 36.71 60.76 36.87 61.08C37.04 61.45 37.13 61.86 37.11 62.28C37.12 62.69 37.03 63.1 36.86 63.48C36.7 63.82 36.46 64.13 36.17 64.38C35.87 64.63 35.54 64.83 35.17 64.96C34.74 65.11 34.28 65.18 33.82 65.15C33.36 65.13 32.91 65.01 32.49 64.81C32.03 64.57 31.61 64.26 31.26 63.87C30.93 63.49 30.66 63.06 30.44 62.6L31.42 61.94C31.63 62.32 31.86 62.67 32.13 63.01Z" fill="#000000" fill-opacity="1.000000" fill-rule="nonzero"/>
		<path id="Vector" d="M43.21 54.91L43.21 64.99L41.99 64.99L41.99 54.91L43.21 54.91Z" fill="#000000" fill-opacity="1.000000" fill-rule="nonzero"/>
		<path id="Vector" d="M53.27 59.88L57.96 59.88C57.96 60.56 57.86 61.23 57.64 61.88C57.44 62.49 57.12 63.06 56.71 63.56C56.29 64.05 55.77 64.44 55.18 64.72C54.54 65.01 53.84 65.15 53.13 65.14C52.43 65.15 51.74 65.02 51.1 64.76C50.48 64.51 49.93 64.14 49.46 63.67C49 63.21 48.63 62.65 48.39 62.03C47.88 60.7 47.88 59.22 48.39 57.88C48.64 57.27 49 56.71 49.47 56.24C49.93 55.77 50.49 55.4 51.1 55.16C51.74 54.89 52.43 54.75 53.13 54.76C53.71 54.75 54.29 54.83 54.85 55C55.36 55.16 55.84 55.4 56.27 55.72C56.69 56.05 57.05 56.46 57.33 56.92L56.46 57.72C56.15 57.19 55.69 56.75 55.14 56.46C54.52 56.15 53.83 55.99 53.13 56.01C52.46 56 51.8 56.17 51.22 56.5C50.64 56.84 50.15 57.32 49.82 57.9C49.49 58.54 49.31 59.25 49.31 59.97C49.31 60.68 49.49 61.39 49.82 62.03C50.15 62.61 50.63 63.1 51.22 63.43C51.8 63.77 52.46 63.94 53.13 63.93C53.59 63.93 54.05 63.86 54.48 63.71C54.86 63.57 55.21 63.35 55.51 63.08C55.8 62.81 56.04 62.5 56.23 62.16C56.41 61.81 56.54 61.43 56.63 61.05L53.27 61.05L53.27 59.88Z" fill="#000000" fill-opacity="1.000000" fill-rule="nonzero"/>
		<path id="Vector" d="M71.7 54.91L71.7 65.5L64.06 57.5L64.06 65L62.83 65L62.83 54.4L70.47 62.4L70.47 54.91L71.7 54.91Z" fill="#000000" fill-opacity="1.000000" fill-rule="nonzero"/>
	</g>
</svg>
